{"accessors" : [{"bufferView" : 0, "byteOffset" : 0, "componentType" : 5123, "count" : 612, "type" : "SCALAR", "max" : [611], "min" : [0]}, {"bufferView" : 1, "byteOffset" : 0, "componentType" : 5126, "count" : 612, "type" : "VEC3", "max" : [15, 10, 59.055118560791016], "min" : [-15, -10, -1.99517204651058E-14], "name" : "POSITION"}, {"bufferView" : 1, "byteOffset" : 12, "componentType" : 5126, "count" : 612, "type" : "VEC3", "max" : [0.9983554482460022, 1.0000044107437134, 0], "min" : [0, -1.0000044107437134, 0], "name" : "NORMAL"}, {"bufferView" : 0, "byteOffset" : 1224, "componentType" : 5123, "count" : 2412, "type" : "SCALAR", "max" : [2411], "min" : [0]}, {"bufferView" : 2, "byteOffset" : 0, "componentType" : 5126, "count" : 2412, "type" : "VEC3", "max" : [6.4594855308532715, 4.303631782531738, 0.5118110179901123], "min" : [-6.4594855308532715, -4.303631782531738, 0], "name" : "POSITION"}, {"bufferView" : 2, "byteOffset" : 12, "componentType" : 5126, "count" : 2412, "type" : "VEC3", "max" : [1.0000042915344238, 1.0000042915344238, 1.0000044107437134], "min" : [-1.0000042915344238, -1.0000042915344238, -1.0000044107437134], "name" : "NORMAL"}, {"bufferView" : 2, "byteOffset" : 24, "componentType" : 5126, "count" : 2412, "type" : "VEC2", "max" : [18.33896255493164, 3.2908754348754883], "min" : [-21.642501831054688, -12.553665161132812], "name" : "TEXCOORD_0"}, {"bufferView" : 0, "byteOffset" : 6048, "componentType" : 5123, "count" : 300, "type" : "SCALAR", "max" : [299], "min" : [0]}, {"bufferView" : 3, "byteOffset" : 0, "componentType" : 5126, "count" : 300, "type" : "VEC3", "max" : [-0.8861435055732727, 3.8405380249023438, 0.5118110179901123], "min" : [-5.527320384979248, 0.013599693775177002, 0], "name" : "POSITION"}, {"bufferView" : 3, "byteOffset" : 12, "componentType" : 5126, "count" : 300, "type" : "VEC3", "max" : [0.9902358651161194, 0.9851773977279663, 0], "min" : [-0.9989120364189148, -1.0000039339065552, 0], "name" : "NORMAL"}, {"bufferView" : 3, "byteOffset" : 24, "componentType" : 5126, "count" : 300, "type" : "VEC2", "max" : [1, -1], "min" : [1, -1], "name" : "TEXCOORD_0"}, {"bufferView" : 0, "byteOffset" : 6648, "componentType" : 5123, "count" : 708, "type" : "SCALAR", "max" : [707], "min" : [0]}, {"bufferView" : 4, "byteOffset" : 0, "componentType" : 5126, "count" : 708, "type" : "VEC3", "max" : [2.5321598052978516, 2.976732015609741, 1.4173228740692139], "min" : [-3.1299211978912354, -2.976732015609741, 0], "name" : "POSITION"}, {"bufferView" : 4, "byteOffset" : 12, "componentType" : 5126, "count" : 708, "type" : "VEC3", "max" : [0.8095657825469971, 0.9513470530509949, 1.0000044107437134], "min" : [-1.0000039339065552, -0.9513469338417053, -1.0000044107437134], "name" : "NORMAL"}, {"bufferView" : 0, "byteOffset" : 8064, "componentType" : 5123, "count" : 828, "type" : "SCALAR", "max" : [827], "min" : [0]}, {"bufferView" : 5, "byteOffset" : 0, "componentType" : 5126, "count" : 828, "type" : "VEC3", "max" : [2.5321598052978516, 2.976732015609741, 4.2125983238220215], "min" : [-3.1299211978912354, -2.976732015609741, 0], "name" : "POSITION"}, {"bufferView" : 5, "byteOffset" : 12, "componentType" : 5126, "count" : 828, "type" : "VEC3", "max" : [0.8095657825469971, 0.9513469338417053, 1.0000044107437134], "min" : [-1.0000039339065552, -0.9513469338417053, -1.0000044107437134], "name" : "NORMAL"}, {"bufferView" : 0, "byteOffset" : 9720, "componentType" : 5123, "count" : 828, "type" : "SCALAR", "max" : [827], "min" : [0]}, {"bufferView" : 6, "byteOffset" : 0, "componentType" : 5126, "count" : 828, "type" : "VEC3", "max" : [2.5321598052978516, 2.976732015609741, 4.2125983238220215], "min" : [-3.1299211978912354, -2.976732015609741, 0], "name" : "POSITION"}, {"bufferView" : 6, "byteOffset" : 12, "componentType" : 5126, "count" : 828, "type" : "VEC3", "max" : [0.8095657825469971, 0.9513469338417053, 1.0000044107437134], "min" : [-1.0000039339065552, -0.9513469338417053, -1.0000044107437134], "name" : "NORMAL"}, {"bufferView" : 0, "byteOffset" : 11376, "componentType" : 5123, "count" : 828, "type" : "SCALAR", "max" : [827], "min" : [0]}, {"bufferView" : 7, "byteOffset" : 0, "componentType" : 5126, "count" : 828, "type" : "VEC3", "max" : [2.5321598052978516, 2.976732015609741, 4.2125983238220215], "min" : [-3.1299211978912354, -2.976732015609741, 0], "name" : "POSITION"}, {"bufferView" : 7, "byteOffset" : 12, "componentType" : 5126, "count" : 828, "type" : "VEC3", "max" : [0.8095657825469971, 0.9513469338417053, 1.0000044107437134], "min" : [-1.0000039339065552, -0.9513469338417053, -1.0000044107437134], "name" : "NORMAL"}, {"bufferView" : 0, "byteOffset" : 13032, "componentType" : 5123, "count" : 828, "type" : "SCALAR", "max" : [827], "min" : [0]}, {"bufferView" : 8, "byteOffset" : 0, "componentType" : 5126, "count" : 828, "type" : "VEC3", "max" : [2.5321598052978516, 2.976732015609741, 4.2125983238220215], "min" : [-3.1299211978912354, -2.976732015609741, 0], "name" : "POSITION"}, {"bufferView" : 8, "byteOffset" : 12, "componentType" : 5126, "count" : 828, "type" : "VEC3", "max" : [0.8095657825469971, 0.9513469338417053, 1.0000044107437134], "min" : [-1.0000039339065552, -0.9513469338417053, -1.0000044107437134], "name" : "NORMAL"}], "asset" : {"generator" : "Aspose.3D 22.5.1", "version" : "2.0"}, "buffers" : [{"uri" : "data:application/octet-stream;base64,", "byteLength" : 212676}], "bufferViews" : [{"buffer" : 0, "byteOffset" : 0, "byteLength" : 14688, "target" : 34963}, {"buffer" : 0, "byteOffset" : 14692, "byteLength" : 14688, "byteStride" : 24, "target" : 34962}, {"buffer" : 0, "byteOffset" : 29384, "byteLength" : 77184, "byteStride" : 32, "target" : 34962}, {"buffer" : 0, "byteOffset" : 106572, "byteLength" : 9600, "byteStride" : 32, "target" : 34962}, {"buffer" : 0, "byteOffset" : 116176, "byteLength" : 16992, "byteStride" : 24, "target" : 34962}, {"buffer" : 0, "byteOffset" : 133172, "byteLength" : 19872, "byteStride" : 24, "target" : 34962}, {"buffer" : 0, "byteOffset" : 153048, "byteLength" : 19872, "byteStride" : 24, "target" : 34962}, {"buffer" : 0, "byteOffset" : 172924, "byteLength" : 19872, "byteStride" : 24, "target" : 34962}, {"buffer" : 0, "byteOffset" : 192800, "byteLength" : 19872, "byteStride" : 24, "target" : 34962}], "materials" : [{"name" : "Material #25", "pbrMetallicRoughness" : {"baseColorFactor" : [0, 0, 0, 1], "metallicFactor" : 0, "roughnessFactor" : 0}, "emissiveFactor" : [0, 0, 0], "alphaMode" : "OPAQUE", "doubleSided" : false}, {"name" : "Material #26", "pbrMetallicRoughness" : {"baseColorFactor" : [0, 0, 0, 1], "metallicFactor" : 0, "roughnessFactor" : 0}, "emissiveFactor" : [0, 0, 0], "alphaMode" : "OPAQUE", "doubleSided" : false}, {"name" : "Material #27", "pbrMetallicRoughness" : {"baseColorFactor" : [0, 0, 0, 1], "metallicFactor" : 0, "roughnessFactor" : 0}, "emissiveFactor" : [0, 0, 0], "alphaMode" : "OPAQUE", "doubleSided" : false}, {"name" : "Material #27", "pbrMetallicRoughness" : {"baseColorFactor" : [0, 0, 0, 1], "metallicFactor" : 0, "roughnessFactor" : 0}, "emissiveFactor" : [0, 0, 0], "alphaMode" : "OPAQUE", "doubleSided" : false}, {"name" : "Material #27", "pbrMetallicRoughness" : {"baseColorFactor" : [0, 0, 0, 1], "metallicFactor" : 0, "roughnessFactor" : 0}, "emissiveFactor" : [0, 0, 0], "alphaMode" : "OPAQUE", "doubleSided" : false}, {"name" : "Material #27", "pbrMetallicRoughness" : {"baseColorFactor" : [0, 0, 0, 1], "metallicFactor" : 0, "roughnessFactor" : 0}, "emissiveFactor" : [0, 0, 0], "alphaMode" : "OPAQUE", "doubleSided" : false}, {"name" : "Material #27", "pbrMetallicRoughness" : {"baseColorFactor" : [0, 0, 0, 1], "metallicFactor" : 0, "roughnessFactor" : 0}, "emissiveFactor" : [0, 0, 0], "alphaMode" : "OPAQUE", "doubleSided" : false}, {"name" : "Material #27", "pbrMetallicRoughness" : {"baseColorFactor" : [0, 0, 0, 1], "metallicFactor" : 0, "roughnessFactor" : 0}, "emissiveFactor" : [0, 0, 0], "alphaMode" : "OPAQUE", "doubleSided" : false}], "meshes" : [{"primitives" : [{"attributes" : {"POSITION" : 1, "NORMAL" : 2}, "indices" : 0, "material" : 0, "mode" : 4}]}, {"primitives" : [{"attributes" : {"POSITION" : 4, "NORMAL" : 5, "TEXCOORD_0" : 6}, "indices" : 3, "material" : 1, "mode" : 4}]}, {"primitives" : [{"attributes" : {"POSITION" : 8, "NORMAL" : 9, "TEXCOORD_0" : 10}, "indices" : 7, "material" : 2, "mode" : 4}]}, {"primitives" : [{"attributes" : {"POSITION" : 12, "NORMAL" : 13}, "indices" : 11, "material" : 3, "mode" : 4}]}, {"primitives" : [{"attributes" : {"POSITION" : 15, "NORMAL" : 16}, "indices" : 14, "material" : 4, "mode" : 4}]}, {"primitives" : [{"attributes" : {"POSITION" : 18, "NORMAL" : 19}, "indices" : 17, "material" : 5, "mode" : 4}]}, {"primitives" : [{"attributes" : {"POSITION" : 21, "NORMAL" : 22}, "indices" : 20, "material" : 6, "mode" : 4}]}, {"primitives" : [{"attributes" : {"POSITION" : 24, "NORMAL" : 25}, "indices" : 23, "material" : 7, "mode" : 4}]}], "nodes" : [{"matrix" : [-1.3315805452146103E-07, -0.9999999999999907, -2.9802322735571995E-08, 0, -3.907186975732108E-15, -2.980232273557174E-08, 0.9999999999999996, 0, -0.9999999999999911, 1.3315805452146108E-07, 6.123233995736764E-17, 0, 29.520721435546875, -5.000000476837158, 10, 1], "mesh" : 0, "name" : "plane"}, {"mesh" : 1, "name" : "redsquare"}, {"mesh" : 2, "name" : "redsquare"}, {"children" : [1, 2], "matrix" : [1, 0, 0, 0, 0, 1, 0, 0, 0, 0, 1, 0, 0.06615924835205078, -3.5946784019470215, 0.20238757133483887, 1], "name" : "redsquare"}, {"matrix" : [0.39010181747207406, -0.12675174967563121, 0, 0, 0.12675174967563121, 0.39010181747207406, 0, 0, 0, 0, 0.4101773202419281, 0, -4.24017333984375, -1.4369951486587524, 0.16965258121490479, 1], "mesh" : 3, "name" : "bigstar"}, {"matrix" : [0.10767140487819155, -0.0863578774909524, 0, 0, 0.0863578774909524, 0.10767140487819155, 0, 0, 0, 0, 0.1380246877670288, 0, -2.087003469467163, -3.1643214225769043, 0.16965258121490479, 1], "mesh" : 4, "name" : "smallstar1"}, {"matrix" : [0.1327305006700738, -0.037860647446356865, 0, 0, 0.037860647446356865, 0.1327305006700738, 0, 0, 0, 0, 0.1380246877670288, 0, -1.2257320880889893, -2.303581714630127, 0.16965258121490479, 1], "mesh" : 5, "name" : "smallstar2"}, {"matrix" : [0.136658493505247, 0.019371901973274347, 0, 0, -0.019371901973274347, 0.136658493505247, 0, 0, 0, 0, 0.1380246877670288, 0, -1.2257320880889893, -1.0125023126602173, 0.16965258121490479, 1], "mesh" : 6, "name" : "smallstar3"}, {"matrix" : [0.10415370964613116, -0.09056941647231254, 0, 0, 0.09056941647231254, 0.10415370964613116, 0, 0, 0, 0, 0.1380246877670288, 0, -2.087005376815796, -0.15177595615386963, 0.16965258121490479, 1], "mesh" : 7, "name" : "smallstar4"}], "scene" : 0, "scenes" : [{"nodes" : [0, 3, 4, 5, 6, 7, 8]}]}